PathFileType	4	(X/Y/Z)	C:\Users\Biomechanik\SynologyDrive\AlexP\Athlete_03\Athlete_3_25_03_31\Walking_10\marker_experimental.trc
DataRate	CameraRate	NumFrames	NumMarkers	Units	OrigDataRate	OrigDataStartFrame	OrigNumFrames
200.000000	200.000000	4	53	mm	200.000000	195	223
Frame#	Time	GLAB			RFHD			LFHD			C7			T6			SPINMOL			SPINM2			SPINM3			T12			BELTOL			BELT2			BELT3			SACROL			SACR2			SACR3			LTHOL			LTH2			LTH3			LSHAOL			LSHA2			LSHA3			LHEE			LTOE			LM5			RTHOL			RTH2			RTH3			RSHAOL			RSHA2			RSHA3			RHEE			RTOE			RM5			STRN			XIPH			LACR			LUAOL			LUA2			LUA3			LLAOL			LLA2			LLA3			LWRR			LWRU			RACR			RUAOL			RUA2			RUA3			RLAOL			RLA2			RLA3			RWRR			RWRU			
		X1	Y1	Z1	X2	Y2	Z2	X3	Y3	Z3	X4	Y4	Z4	X5	Y5	Z5	X6	Y6	Z6	X7	Y7	Z7	X8	Y8	Z8	X9	Y9	Z9	X10	Y10	Z10	X11	Y11	Z11	X12	Y12	Z12	X13	Y13	Z13	X14	Y14	Z14	X15	Y15	Z15	X16	Y16	Z16	X17	Y17	Z17	X18	Y18	Z18	X19	Y19	Z19	X20	Y20	Z20	X21	Y21	Z21	X22	Y22	Z22	X23	Y23	Z23	X24	Y24	Z24	X25	Y25	Z25	X26	Y26	Z26	X27	Y27	Z27	X28	Y28	Z28	X29	Y29	Z29	X30	Y30	Z30	X31	Y31	Z31	X32	Y32	Z32	X33	Y33	Z33	X34	Y34	Z34	X35	Y35	Z35	X36	Y36	Z36	X37	Y37	Z37	X38	Y38	Z38	X39	Y39	Z39	X40	Y40	Z40	X41	Y41	Z41	X42	Y42	Z42	X43	Y43	Z43	X44	Y44	Z44	X45	Y45	Z45	X46	Y46	Z46	X47	Y47	Z47	X48	Y48	Z48	X49	Y49	Z49	X50	Y50	Z50	X51	Y51	Z51	X52	Y52	Z52	X53	Y53	Z53	

196	0.975	884.3443603515624	1573.746459960938	184.4494628906252	834.3464355468749	1604.304077148438	247.6240997314455	847.1562499999999	1601.80908203125	109.2467727661134	648.5093994140624	1428.924438476562	165.3813934326173	587.6844482421874	1261.15185546875	163.9469451904298	578.7135009765624	1220.957885742188	143.3299713134767	573.7600708007811	1214.588989257812	193.004852294922	582.4234008789061	1157.14794921875	160.6784973144532	603.6768188476561	1091.417846679688	166.5460052490236	566.2958984374999	1058.165405273438	154.9511566162111	569.2449340820311	1054.828491210938	205.2640533447267	560.0028686523436	996.0684814453125	175.4764099121095	575.1003417968749	952.0267333984375	159.8973083496095	583.3251953124999	945.7070922851562	210.0263671875001	558.5382690429688	891.2667236328125	181.3948059082032	611.8739624023438	681.6184692382812	-8.633579254150279	552.38818359375	639.7556762695312	23.62709999084483	597.284423828125	624.3922729492188	8.249482154846302	518.7440185546875	333.9855651855469	18.38154602050791	457.6586608886719	284.2963562011719	31.06722450256356	506.9022827148438	273.8360290527344	28.79313468933115	395.8141784667969	98.66993713378909	125.6286544799805	606.6070556640625	42.7500152587891	125.5753173828126	560.4633178710938	32.16828536987308	24.05855178833018	755.3606567382811	658.901611328125	355.0697021484376	828.9156494140624	630.4385375976562	364.2317199707033	789.6552734374999	609.4149169921875	344.887176513672	862.0847778320311	333.3240661621094	343.369598388672	915.8476562499999	276.7763671875001	348.698211669922	870.2130737304686	273.7918395996094	329.3450012207033	924.034423828125	55.55605697631842	229.0665435791017	1122.64013671875	116.4568481445313	261.6304626464846	1074.472045898438	77.79679107666023	355.2634582519533	815.3796386718749	1323.182006835938	172.2695922851564	827.7250366210936	1179.65869140625	169.8171997070314	728.9467773437499	1390.31005859375	-5.086084365844592	750.5864257812499	1245.139892578125	-111.748924255371	752.0833740234374	1182.574584960938	-132.1511230468749	796.3287963867186	1197.89501953125	-110.0727691650389	875.5709228515624	1013.442626953125	-158.7066955566405	880.6892700195311	936.2117919921875	-141.9501037597655	917.4705810546874	969.5408325195312	-149.2876586914061	994.7918701171875	901.6728515625001	-134.3036346435545	1016.46142578125	935.5435791015626	-64.99680328369122	724.6142578124998	1380.041259765625	340.0950927734376	676.2686767578123	1237.293090820312	438.403045654297	688.2603759765623	1172.813720703125	450.615447998047	638.542297363281	1185.637329101562	455.0781555175782	628.1696777343748	969.9551391601562	500.1110229492189	666.6746215820311	912.8931274414062	540.3168945312501	630.3939819335936	906.720458984375	508.9002685546876	648.2973022460936	822.1510009765625	535.0156860351564	699.3834838867186	795.7634887695312	476.4583129882814	
197	0.98	891.8287353515624	1572.356201171875	185.7001037597658	841.8098754882811	1602.788696289062	248.9257202148439	854.6425170898436	1600.55224609375	110.5438919067384	655.9719238281249	1427.610595703125	166.3648223876954	595.0411376953124	1259.936889648438	164.8159790039064	585.9871215820311	1219.743286132812	144.1819458007814	581.1137695312499	1213.35693359375	193.8653869628907	589.6903686523436	1155.924194335938	161.4944152832032	610.9171752929686	1090.134521484375	167.3070831298829	573.6014404296874	1056.882446289062	155.7667846679689	576.6767578124999	1053.432861328125	206.0664215087892	567.2851562499999	994.750732421875	176.1771392822267	582.3347167968749	951.1256713867188	160.7680511474611	590.8049926757811	944.5878295898438	210.8085784912111	565.492919921875	890.396240234375	182.1511993408204	616.6956787109375	681.5055541992188	-8.439422607421761	557.1767578125	640.0416259765625	24.27745819091807	601.8018188476562	624.3666381835938	8.4937505722047	521.2164306640625	334.4808959960938	18.35597610473642	459.731201171875	285.2903747558594	31.11235237121591	508.895263671875	274.4126892089844	28.82667922973642	396.4181213378906	100.1150665283203	125.6253204345704	606.7330322265625	42.65365982055668	125.5568923950196	560.6007690429688	32.19431686401371	24.07205772399913	761.0914306640624	656.7291870117188	354.0859375000001	834.3262939453124	627.826904296875	364.318328857422	795.3683471679686	607.1513061523438	343.9950256347658	872.7955932617186	331.5444946289063	343.2619628906252	928.1047363281249	276.4375000000001	348.8647766113283	882.5153808593749	272.2428588867188	329.5213317871095	942.357177734375	54.5993156433106	230.2214813232424	1139.449462890625	121.0921173095704	261.6817932128909	1092.9619140625	81.12719726562507	355.6247558593752	822.8041992187499	1321.633056640625	172.996292114258	835.0175170898436	1178.146484375	170.2518310546876	736.3409423828124	1389.172485351562	-4.182791709899767	758.1725463867186	1244.229370117188	-110.9974136352538	759.9403076171874	1181.715576171875	-131.5372161865233	804.1218872070311	1197.178100585938	-109.4327545166014	884.5594482421874	1013.436096191406	-158.158493041992	890.3969116210936	936.2544555664062	-141.3781890869139	926.8695678710936	969.9507446289062	-148.636764526367	1004.814270019531	902.8663940429689	-133.4227600097655	1026.006713867188	937.0314331054689	-64.13558197021466	732.0624389648435	1378.432739257812	340.9694824218751	683.3280029296873	1235.672607421875	439.0350036621095	695.094543457031	1171.138061523438	451.227996826172	645.4152832031248	1184.125732421875	455.6067504882814	633.8991699218748	968.650390625	500.5273742675782	671.9124755859374	911.3408203125	540.8583984375001	635.6504516601561	905.4313354492188	509.359344482422	652.9287109374999	820.7442016601562	535.6082153320314	703.8989257812499	793.881591796875	477.1260070800782	
198	0.985	899.3665161132811	1570.976928710938	186.9946899414064	849.3272705078124	1601.284545898438	250.2700500488283	862.1815185546874	1599.305419921875	111.8855361938478	663.4934082031249	1426.302856445312	167.3918914794923	602.4644775390624	1258.724243164062	165.7110595703126	593.3314819335936	1218.534057617188	145.0553436279298	588.5357666015624	1212.123291015625	194.7462158203126	597.0286254882811	1154.703857421875	162.3230590820314	618.2300415039061	1088.853149414062	168.0632629394532	580.9895019531249	1055.610107421875	156.5976104736329	584.1863403320311	1052.047973632812	206.883270263672	574.6484374999999	993.4441528320312	176.8900756835939	589.6462402343749	950.2286376953125	161.6558074951173	598.3558349609374	943.4788208007812	211.6140747070314	572.5493774414062	889.5255737304688	182.9265136718751	621.62060546875	681.4154663085938	-8.222865104675179	562.0953979492188	640.3346557617188	24.97279357910167	606.437744140625	624.359130859375	8.755911827087514	523.8153076171875	335.0237121582032	18.31695556640635	461.920166015625	286.3537292480469	31.14432334899911	510.9967041015625	275.0447692871094	28.84634780883798	397.0935974121094	101.6841812133789	125.5981903076173	606.8871459960938	42.55950927734379	125.5312728881837	560.75341796875	32.22870635986332	24.08046340942393	766.9025268554686	654.6030883789062	353.2112426757814	839.8087158203124	625.2874755859375	364.5640563964845	801.1818237304686	604.9500122070312	343.2295837402345	883.4257202148436	329.8784484863282	343.2193603515627	940.1821899414061	276.1501159667969	349.0046997070314	894.6306152343749	270.8324584960938	329.7325134277345	960.0670166015625	53.88529968261724	231.2937316894533	1155.6220703125	125.632667541504	261.5598449707034	1110.854858398438	84.39505767822273	355.8140563964846	830.2905883789061	1320.103271484375	173.7614593505861	842.3774414062499	1176.6533203125	170.720901489258	743.8067016601561	1388.050537109375	-3.23753118515001	765.8082275390624	1243.32373046875	-110.1955184936522	767.8327636718749	1180.86572265625	-130.8881988525389	811.9494018554686	1196.450805664062	-108.7473526000975	893.4940795898436	1013.385681152344	-157.5704040527342	900.0113525390624	936.2579956054688	-140.7651519775389	936.1890258789061	970.2972412109376	-147.9543151855467	1014.71630859375	903.9606933593751	-132.5253143310545	1035.46435546875	938.4058837890626	-63.26745223999004	739.5749511718748	1376.831665039062	341.8841857910157	690.474426269531	1234.047607421875	439.6978454589845	702.0312499999998	1169.462768554688	451.8643798828126	652.3894042968748	1182.60107421875	456.1668090820314	639.7731933593748	967.3296508789062	500.9450988769532	677.3057861328124	909.778564453125	541.3920288085939	641.0560302734374	904.1312866210938	509.8141174316407	657.7283935546874	819.3297729492188	536.1837768554689	708.5574951171874	792.0036010742188	477.756561279297	
199	0.99	906.9602050781249	1569.614013671875	188.3334350585939	856.9007568359374	1599.796630859375	251.6575469970705	869.7756347656249	1598.073974609375	113.2719116210939	671.0765380859374	1425.005615234375	168.4626312255861	609.9581298828124	1257.517700195312	166.6317749023439	600.7507324218749	1217.334350585938	145.9495391845704	596.0302124023436	1210.891967773438	195.6465148925782	604.4424438476561	1153.490966796875	163.1633605957032	625.6192016601561	1087.578369140625	168.8133239746095	588.4617919921874	1054.352905273438	157.4431304931642	591.7751464843749	1050.679077148438	207.7141723632814	582.0953979492186	992.1533203125	177.6158905029298	597.0380249023436	949.334716796875	162.5562286376954	605.9801635742186	942.380615234375	212.4392242431642	579.7129516601562	888.6532592773438	183.7168731689454	626.6663208007812	681.3453979492188	-7.983731746673469	567.1596069335938	640.6298828125	25.70715522766124	611.209716796875	624.3665161132812	9.034756660461538	526.5554809570312	335.6152343750001	18.26447486877451	464.2396240234375	287.4895324707032	31.16239166259774	513.2196655273438	275.7344055175782	28.8523998260499	397.8493347167969	103.3851165771485	125.5473251342774	607.0687255859375	42.46627807617191	125.4995727539064	560.9235229492188	32.27315139770511	24.08381843566905	772.8511962890624	652.5425415039062	352.4573364257814	845.4291381835936	622.8523559570312	364.9562072753908	807.1549682617186	602.836669921875	342.5985107421877	893.9603271484374	328.3215637207032	343.2308349609377	952.0560913085936	275.8926696777344	349.1126098632814	906.5332031249999	269.5450134277344	329.9651184082033	977.10107421875	53.36672210693365	232.2713470458986	1171.123657226562	129.9998779296876	261.2709655761721	1128.0986328125	87.53024291992195	355.8326416015627	837.8416748046874	1318.598388671875	174.5659637451173	849.8083496093749	1175.184326171875	171.225555419922	751.3469238281249	1386.950317382812	-2.24918317794786	773.4978027343749	1242.430541992188	-109.342086791992	775.7643432617186	1180.032836914062	-130.2044219970702	819.8144531249999	1195.7197265625	-108.0156860351561	902.3745117187499	1013.294189453125	-156.9425048828123	909.5303344726561	936.22412109375	-140.1112213134764	945.4282836914061	970.5814819335939	-147.2408142089842	1024.49658203125	904.9528198242189	-131.6135864257811	1044.834228515625	939.6636352539064	-62.39196014404278	747.1557006835935	1375.24267578125	342.8395080566407	697.7111206054685	1232.422607421875	440.3921203613282	709.0733642578123	1167.79248046875	452.5247802734376	659.467590332031	1181.067749023438	456.7583007812501	645.7951660156248	965.9967041015625	501.3635559082032	682.8576049804686	908.2103271484375	541.9185180664064	646.6157226562499	902.8234252929688	510.2638549804689	662.7003784179686	817.9111938476562	536.7423706054689	713.3677978515624	790.1351928710938	478.3514099121095	
